<svg width="18" height="19" viewBox="0 0 18 19" fill="none" xmlns="http://www.w3.org/2000/svg">
<path d="M6.6827 16.0025C6.5402 16.0025 6.3977 15.95 6.2852 15.8375C6.0677 15.62 6.0677 15.26 6.2852 15.0425L11.1752 10.1525C11.5352 9.79251 11.5352 9.20751 11.1752 8.84751L6.2852 3.95751C6.0677 3.74001 6.0677 3.38001 6.2852 3.16251C6.5027 2.94501 6.86269 2.94501 7.08019 3.16251L11.9702 8.05251C12.3527 8.43501 12.5702 8.95252 12.5702 9.50002C12.5702 10.0475 12.3602 10.565 11.9702 10.9475L7.08019 15.8375C6.96769 15.9425 6.8252 16.0025 6.6827 16.0025Z" fill="white"/>
</svg>
