<svg width="32" height="48" viewBox="0 0 32 48" fill="none" xmlns="http://www.w3.org/2000/svg">
<g opacity="0.2">
<path d="M26.1381 26.314L16.7681 35.536C16.5637 35.7383 16.2877 35.8517 16.0001 35.8517C15.7125 35.8517 15.4365 35.7383 15.2321 35.536L5.8601 26.316C5.65439 26.1139 5.37751 26.0006 5.0891 26.0006C4.80069 26.0006 4.52381 26.1139 4.3181 26.316C4.2168 26.4148 4.1363 26.5328 4.08133 26.6632C4.02637 26.7935 3.99805 26.9336 3.99805 27.075C3.99805 27.2165 4.02637 27.3565 4.08133 27.4869C4.1363 27.6172 4.2168 27.7353 4.3181 27.834L13.6861 37.054C14.3031 37.6599 15.1333 37.9993 15.9981 37.9993C16.8629 37.9993 17.6931 37.6599 18.3101 37.054L27.6781 27.834C27.7797 27.7352 27.8605 27.6171 27.9156 27.4865C27.9708 27.356 27.9992 27.2157 27.9992 27.074C27.9992 26.9323 27.9708 26.792 27.9156 26.6615C27.8605 26.531 27.7797 26.4128 27.6781 26.314C27.4724 26.1119 27.1955 25.9986 26.9071 25.9986C26.6187 25.9986 26.3418 26.1119 26.1361 26.314" fill="white"/>
</g>
<g opacity="0.6">
<path d="M26.1381 10.314L16.7681 19.536C16.5637 19.7383 16.2877 19.8517 16.0001 19.8517C15.7125 19.8517 15.4365 19.7383 15.2321 19.536L5.8601 10.316C5.65439 10.1139 5.37751 10.0006 5.0891 10.0006C4.80069 10.0006 4.52381 10.1139 4.3181 10.316C4.2168 10.4148 4.1363 10.5328 4.08133 10.6632C4.02637 10.7935 3.99805 10.9336 3.99805 11.075C3.99805 11.2165 4.02637 11.3565 4.08133 11.4869C4.1363 11.6172 4.2168 11.7353 4.3181 11.834L13.6861 21.054C14.3031 21.6599 15.1333 21.9993 15.9981 21.9993C16.8629 21.9993 17.6931 21.6599 18.3101 21.054L27.6781 11.834C27.7797 11.7352 27.8605 11.6171 27.9156 11.4865C27.9708 11.356 27.9992 11.2157 27.9992 11.074C27.9992 10.9323 27.9708 10.792 27.9156 10.6615C27.8605 10.531 27.7797 10.4128 27.6781 10.314C27.4724 10.1119 27.1955 9.9986 26.9071 9.9986C26.6187 9.9986 26.3418 10.1119 26.1361 10.314" fill="white"/>
</g>
</svg>
