<svg width="12" height="13" viewBox="0 0 12 13" fill="none" xmlns="http://www.w3.org/2000/svg">
<path d="M7.74609 6.68145C9.12775 5.64813 10.1133 4.51147 10.6516 3.87259C10.8183 3.67481 10.8727 3.52981 10.9055 3.27482C11.0177 2.40149 11.0738 1.96483 10.8177 1.68261C10.5616 1.40039 10.1088 1.40039 9.2033 1.40039H2.7967C1.89115 1.40039 1.43838 1.40039 1.18227 1.68205C0.926161 1.96427 0.982272 2.40094 1.09449 3.27426C1.12783 3.52926 1.18227 3.67426 1.34838 3.87203C1.88726 4.51203 2.87448 5.6509 4.25946 6.68589C4.32351 6.73573 4.37645 6.79838 4.4149 6.86983C4.45336 6.94129 4.47648 7.01999 4.48279 7.10089C4.62001 8.6181 4.74668 9.4492 4.82557 9.86919C4.95279 10.5481 5.91445 10.9564 6.43 11.3203C6.73666 11.537 7.10888 11.2792 7.14832 10.9436C7.29584 9.66503 7.42067 8.38391 7.52276 7.10089C7.52847 7.01922 7.5513 6.93966 7.58978 6.8674C7.62826 6.79513 7.68152 6.73177 7.74609 6.68145Z" stroke="white" stroke-width="1.5" stroke-linecap="round" stroke-linejoin="round"/>
</svg>
