<svg width="24" height="25" viewBox="0 0 24 25" fill="none" xmlns="http://www.w3.org/2000/svg">
<path d="M13.3125 16.9004C13.3125 17.0496 13.2532 17.1927 13.1478 17.2981C13.0423 17.4036 12.8992 17.4629 12.75 17.4629C12.4019 17.4629 12.0681 17.3246 11.8219 17.0785C11.5758 16.8323 11.4375 16.4985 11.4375 16.1504V12.4004C11.4375 12.3507 11.4178 12.303 11.3826 12.2678C11.3474 12.2326 11.2997 12.2129 11.25 12.2129C11.1008 12.2129 10.9577 12.1536 10.8523 12.0481C10.7468 11.9426 10.6875 11.7996 10.6875 11.6504C10.6875 11.5012 10.7468 11.3581 10.8523 11.2526C10.9577 11.1472 11.1008 11.0879 11.25 11.0879C11.5981 11.0879 11.9319 11.2262 12.1781 11.4723C12.4242 11.7185 12.5625 12.0523 12.5625 12.4004V16.1504C12.5625 16.2001 12.5823 16.2478 12.6174 16.283C12.6526 16.3181 12.7003 16.3379 12.75 16.3379C12.8992 16.3379 13.0423 16.3972 13.1478 16.5026C13.2532 16.6081 13.3125 16.7512 13.3125 16.9004ZM11.625 9.21289C11.8104 9.21289 11.9917 9.15791 12.1459 9.05489C12.3 8.95188 12.4202 8.80546 12.4911 8.63416C12.5621 8.46285 12.5807 8.27435 12.5445 8.09249C12.5083 7.91064 12.419 7.74359 12.2879 7.61248C12.1568 7.48137 11.9898 7.39208 11.8079 7.3559C11.626 7.31973 11.4375 7.3383 11.2662 7.40925C11.0949 7.48021 10.9485 7.60037 10.8455 7.75454C10.7425 7.90872 10.6875 8.08997 10.6875 8.27539C10.6875 8.52403 10.7863 8.76249 10.9621 8.9383C11.1379 9.11412 11.3764 9.21289 11.625 9.21289ZM21.5625 12.4004C21.5625 14.2917 21.0017 16.1405 19.9509 17.713C18.9002 19.2856 17.4067 20.5112 15.6594 21.235C13.9121 21.9588 11.9894 22.1481 10.1345 21.7792C8.27951 21.4102 6.57564 20.4994 5.2383 19.1621C3.90096 17.8248 2.99022 16.1209 2.62125 14.2659C2.25227 12.411 2.44164 10.4883 3.16541 8.74098C3.88917 6.99366 5.11482 5.5002 6.68736 4.44946C8.25991 3.39872 10.1087 2.83789 12 2.83789C14.5352 2.84087 16.9658 3.8493 18.7584 5.64197C20.5511 7.43464 21.5595 9.86517 21.5625 12.4004ZM20.4375 12.4004C20.4375 10.7316 19.9427 9.10031 19.0155 7.71277C18.0884 6.32523 16.7706 5.24377 15.2289 4.60516C13.6871 3.96654 11.9906 3.79945 10.3539 4.12501C8.71722 4.45058 7.2138 5.25417 6.03379 6.43418C4.85379 7.61418 4.05019 9.1176 3.72463 10.7543C3.39907 12.391 3.56616 14.0875 4.20477 15.6293C4.84338 17.171 5.92484 18.4888 7.31238 19.4159C8.69992 20.343 10.3312 20.8379 12 20.8379C14.237 20.8354 16.3817 19.9457 17.9635 18.3639C19.5453 16.7821 20.435 14.6374 20.4375 12.4004Z" fill="white"/>
</svg>
