<svg width="24" height="24" viewBox="0 0 24 24" fill="none" xmlns="http://www.w3.org/2000/svg">
<g opacity="0.75">
<path d="M9.78439 15.6923L15.5333 12.3692L9.78439 9.04616V15.6923ZM22.5893 7.01908C22.7333 7.53969 22.833 8.23754 22.8995 9.12369C22.977 10.0098 23.0102 10.7742 23.0102 11.4388L23.0767 12.3692C23.0767 14.7951 22.8995 16.5785 22.5893 17.7194C22.3124 18.7163 21.6699 19.3588 20.673 19.6357C20.1524 19.7797 19.1998 19.8794 17.7376 19.9458C16.2976 20.0234 14.9795 20.0566 13.761 20.0566L11.9998 20.1231C7.35854 20.1231 4.46747 19.9458 3.32654 19.6357C2.32962 19.3588 1.68716 18.7163 1.41024 17.7194C1.26624 17.1988 1.16654 16.5009 1.10008 15.6148C1.02254 14.7286 0.989313 13.9643 0.989313 13.2997L0.922852 12.3692C0.922852 9.94339 1.10008 8.16 1.41024 7.01908C1.68716 6.02216 2.32962 5.37969 3.32654 5.10277C3.84716 4.95877 4.79977 4.85908 6.26193 4.79262C7.70193 4.71508 9.02008 4.68185 10.2385 4.68185L11.9998 4.61539C16.641 4.61539 19.5321 4.79262 20.673 5.10277C21.6699 5.37969 22.3124 6.02216 22.5893 7.01908Z" fill="white"/>
</g>
</svg>
